<svg id="Layer_1" data-name="Layer 1" xmlns="http://www.w3.org/2000/svg" viewBox="0 0 752.78 261.17"><defs><style>.cls-1{fill:#fff;}</style></defs><path class="cls-1" d="M388.32,42.22A118.45,118.45,0,0,1,455.52,38c10,22.29,20.2,44.48,30.15,66.79-21.11-6.28-44-9.58-65.6-3.89-15.21,3.86-29.08,13.27-37.53,26.6C366,153.93,370.82,192,394,213.08A71.35,71.35,0,0,0,444,232.26c16.75-.12,33-6.29,46.86-15.42,12.85-8.38,23.85-19.27,33.61-31q.07,34.78,0,69.57c-12.57,13.25-27.5,24.49-44.43,31.54a117.68,117.68,0,0,1-54.13,9c-32.22-2.19-63.23-17-85.76-40.06a121.4,121.4,0,0,1-33.05-61.75c-6.29-30.3-1.36-62.62,13-90C334.43,76.22,358.72,53.1,388.32,42.22Z" transform="translate(-25.28 -35)"/><path class="cls-1" d="M25.28,40.49c24.37,0,48.75,0,73.12,0,15.39,30.44,30.9,60.81,46.22,91.29Q164.74,86,184.79,40.24c14.38,20.12,28.59,40.36,42.93,60.5q-41.53,93.69-83.05,187.39Q84.88,164.35,25.28,40.49Z" transform="translate(-25.28 -35)"/><path class="cls-1" d="M265.08,40.46c23.09.08,46.18,0,69.27,0Q280.42,164.42,226.26,288.21c-12.23-24.78-24.3-49.64-36.6-74.38Q227.39,127.16,265.08,40.46Z" transform="translate(-25.28 -35)"/><path class="cls-1" d="M468.88,40.49c24.42,0,48.84,0,73.26,0q23.07,45.68,46.27,91.29Q608.33,86,628.5,40.26q21.6,30.18,42.91,60.56-41.55,93.68-83,187.38Q528.58,164.38,468.88,40.49Z" transform="translate(-25.28 -35)"/><path class="cls-1" d="M708.68,40.53c23.13-.09,46.26,0,69.38-.06Q724.17,164.4,670,288.2,651.66,251,633.4,213.82,670.93,127.14,708.68,40.53Z" transform="translate(-25.28 -35)"/><path class="cls-1" d="M696.45,264.63c9-2.54,18.49,6.14,16.88,15.34-.72,9-11.32,14.86-19.4,11-7.46-2.91-10.5-12.79-6.52-19.59A13.71,13.71,0,0,1,696.45,264.63Z" transform="translate(-25.28 -35)"/><path class="cls-1" d="M695.49,268.63c5.21-2.37,12.2.51,13.81,6.12,2.46,6.19-2.51,14-9.31,13.78-6.28.64-11.76-5.48-10.71-11.63A10,10,0,0,1,695.49,268.63Z" transform="translate(-25.28 -35)"/><path class="cls-1" d="M694,270.76c3.57.17,7.28-.53,10.76.56,3.37,1.85,2.4,8-1.75,8.14,1.14,1.9,2.23,3.82,3.34,5.74l-3.69.14a56.07,56.07,0,0,1-3.26-6.06l-1.88-.06q0,3,0,6H694Z" transform="translate(-25.28 -35)"/><path class="cls-1" d="M697.51,273.48c1.92.32,5.06-.87,6,1.47-.33,2.95-4.07,1.73-6,2.09Z" transform="translate(-25.28 -35)"/></svg>